<svg id="access" xmlns="http://www.w3.org/2000/svg" width="25" height="25" viewBox="0 0 25 25">
  <path id="Path_7973" data-name="Path 7973" d="M24.268,0H.732A.732.732,0,0,0,0,.732V18.311a.732.732,0,0,0,.732.732H8.838v4.492h-2.2a.732.732,0,0,0,0,1.465H18.359a.732.732,0,0,0,0-1.465h-2.2V19.043h8.105A.732.732,0,0,0,25,18.311V.732A.732.732,0,0,0,24.268,0ZM1.465,1.465h22.07V11.719H1.465ZM14.7,23.535H10.3V19.043H14.7ZM1.465,17.578V13.184h22.07v4.395Zm0,0" transform="translate(0 0)" fill="#3655c6"/>
  <path id="Path_7974" data-name="Path 7974" d="M214.691,300h-2.953a.738.738,0,1,0,0,1.476h2.953a.738.738,0,1,0,0-1.476Zm0,0" transform="translate(-200.714 -285.359)" fill="#3655c6"/>
  <path id="Path_7975" data-name="Path 7975" d="M242.476,120.738a.738.738,0,1,1-.738-.738A.738.738,0,0,1,242.476,120.738Zm0,0" transform="translate(-229.238 -114.143)" fill="#3655c6"/>
  <path id="Path_7976" data-name="Path 7976" d="M70.6,60a3.693,3.693,0,0,0-2.937,1.476H63.214a.737.737,0,0,0-.522.216l-1.476,1.476a.738.738,0,0,0,0,1.044l1.476,1.476a.737.737,0,0,0,.522.216h4.444A3.686,3.686,0,1,0,70.6,60Zm0,5.905a2.19,2.19,0,0,1-1.905-1.11.738.738,0,0,0-.638-.367H63.52l-.738-.738.738-.738h4.533a.738.738,0,0,0,.638-.367,2.19,2.19,0,0,1,1.905-1.11,2.214,2.214,0,0,1,0,4.429Zm0,0" transform="translate(-57.998 -57.047)" fill="#3655c6"/>
  <path id="Path_7977" data-name="Path 7977" d="M364.691,60h-2.953a.738.738,0,1,0,0,1.476h2.953a.738.738,0,0,0,0-1.476Zm0,0" transform="translate(-343.431 -57.047)" fill="#3655c6"/>
  <path id="Path_7978" data-name="Path 7978" d="M364.691,180h-2.953a.738.738,0,1,0,0,1.476h2.953a.738.738,0,0,0,0-1.476Zm0,0" transform="translate(-343.431 -171.215)" fill="#3655c6"/>
  <path id="Path_7979" data-name="Path 7979" d="M364.691,120h-2.953a.738.738,0,1,0,0,1.476h2.953a.738.738,0,0,0,0-1.476Zm0,0" transform="translate(-343.431 -114.143)" fill="#3655c6"/>
</svg>
