<svg id="reading-book" xmlns="http://www.w3.org/2000/svg" width="25" height="30" viewBox="0 0 25 30">
  <path id="Path_8007" data-name="Path 8007" d="M65.994,19.336a2.929,2.929,0,0,0-2.326-2.871V13.3a.881.881,0,0,0-.375-.722.866.866,0,0,0-.8-.1l-1.664.629a10.16,10.16,0,0,0-3.878-2.537,5.814,5.814,0,1,0-6.908,0,10.16,10.16,0,0,0-3.878,2.537L44.5,12.478a.866.866,0,0,0-.8.1.881.881,0,0,0-.375.722v3.164a2.935,2.935,0,0,0,0,5.742v3.4a.879.879,0,0,0,.566.823l9.3,3.516a.876.876,0,0,0,.612,0l9.3-3.516a.879.879,0,0,0,.566-.823v-3.4A2.929,2.929,0,0,0,65.994,19.336ZM49.424,5.86a4.07,4.07,0,1,1,4.07,4.1A4.09,4.09,0,0,1,49.424,5.86Zm4.07,5.86a8.379,8.379,0,0,1,5.517,2.074l-5.517,2.085-5.517-2.085A8.379,8.379,0,0,1,53.494,11.719ZM42.738,19.336A1.169,1.169,0,0,1,43.9,18.164h.581v2.344H43.9A1.169,1.169,0,0,1,42.738,19.336Zm2.326,2.9A1.465,1.465,0,0,0,46.227,20.8v-2.93a1.465,1.465,0,0,0-1.163-1.435V14.569l7.558,2.857V27.854L45.064,25Zm9.3,5.617V17.426l7.558-2.857v1.867a1.465,1.465,0,0,0-1.163,1.435V20.8a1.465,1.465,0,0,0,1.163,1.435V25Zm8.721-7.345h-.581V18.164h.581a1.172,1.172,0,0,1,0,2.344Z" transform="translate(-40.994)" fill="#3655c6"/>
</svg>
