<svg id="certificate" xmlns="http://www.w3.org/2000/svg" width="25" height="25" viewBox="0 0 25 25">
  <path id="Path_7982" data-name="Path 7982" d="M24.268,0H.732A.732.732,0,0,0,0,.732v20.4a.732.732,0,0,0,.732.732H14.121v2.406a.732.732,0,0,0,1.251.517c.006-.006.565-.567,1.013-1.011l0,0a1.158,1.158,0,0,1,1.636,0l0,0c.448.445,1.007,1.006,1.013,1.011a.732.732,0,0,0,1.251-.517V21.862h3.975A.732.732,0,0,0,25,21.13V.732A.732.732,0,0,0,24.268,0ZM18.828,22.527a2.622,2.622,0,0,0-3.242,0v-2.7a3.081,3.081,0,0,0,3.242,0Zm-1.621-3.7a1.621,1.621,0,1,1,1.621-1.621A1.623,1.623,0,0,1,17.207,18.828ZM23.535,20.4H20.293v-3.19a3.086,3.086,0,0,0-6.172,0V20.4H1.465V1.465h22.07Z" fill="#3655c6"/>
  <path id="Path_7983" data-name="Path 7983" d="M161.4,81.8h7.845a.732.732,0,0,0,0-1.465H161.4a.732.732,0,0,0,0,1.465Z" transform="translate(-152.822 -76.41)" fill="#3655c6"/>
  <path id="Path_7984" data-name="Path 7984" d="M97.132,162.132h14.121a.732.732,0,0,0,0-1.465H97.132a.732.732,0,0,0,0,1.465Z" transform="translate(-91.693 -152.822)" fill="#3655c6"/>
  <path id="Path_7985" data-name="Path 7985" d="M97.132,290.665h4.707a.732.732,0,1,0,0-1.465H97.132a.732.732,0,0,0,0,1.465Z" transform="translate(-91.693 -275.079)" fill="#3655c6"/>
  <path id="Path_7986" data-name="Path 7986" d="M97.132,226.4h14.121a.732.732,0,1,0,0-1.465H97.132a.732.732,0,1,0,0,1.465Z" transform="translate(-91.693 -213.951)" fill="#3655c6"/>
  <path id="Path_7987" data-name="Path 7987" d="M97.132,354.932h4.707a.732.732,0,1,0,0-1.465H97.132a.732.732,0,1,0,0,1.465Z" transform="translate(-91.693 -336.208)" fill="#3655c6"/>
</svg>
