<svg id="clock_1_" data-name="clock (1)" xmlns="http://www.w3.org/2000/svg" width="25" height="25" viewBox="0 0 25 25">
  <path id="Path_7988" data-name="Path 7988" d="M12.5,0A12.5,12.5,0,1,0,25,12.5,12.514,12.514,0,0,0,12.5,0Zm0,23.209A10.708,10.708,0,1,1,23.21,12.5,10.721,10.721,0,0,1,12.5,23.209Z" transform="translate(-0.002)" fill="#3655c6"/>
  <path id="Path_7989" data-name="Path 7989" d="M102.855,49.827H96.277v-7.19a1,1,0,0,0-2.006,0V50.83a1,1,0,0,0,1,1h7.581a1,1,0,0,0,0-2.006Z" transform="translate(-83.712 -37.002)" fill="#3655c6"/>
</svg>
