<svg id="countdown" xmlns="http://www.w3.org/2000/svg" width="25" height="25" viewBox="0 0 25 25">
  <path id="Path_8019" data-name="Path 8019" d="M21.339,3.661A12.5,12.5,0,0,0,3.661,21.339,12.5,12.5,0,0,0,21.339,3.661ZM12.5,23.535A11.035,11.035,0,1,1,23.535,12.5,11.048,11.048,0,0,1,12.5,23.535Z" transform="translate(0 0)" fill="#3655c6"/>
  <path id="Path_8020" data-name="Path 8020" d="M79.225,69.748H76.309a.729.729,0,0,0-.729.729,5.1,5.1,0,1,1-5.1-5.1.729.729,0,0,0,.729-.729V61.729A.729.729,0,0,0,70.477,61a9.477,9.477,0,1,0,9.477,9.477A.729.729,0,0,0,79.225,69.748ZM70.477,78.5a8.019,8.019,0,0,1-.729-16v1.465A6.561,6.561,0,1,0,77,71.206h1.465A8.03,8.03,0,0,1,70.477,78.5Z" transform="translate(-57.977 -57.977)" fill="#3655c6"/>
  <path id="Path_8021" data-name="Path 8021" d="M211.042,182.8a.743.743,0,1,0,1.459.286.744.744,0,1,1,.729.888.743.743,0,0,0,0,1.487.743.743,0,1,1-.736.848.755.755,0,0,1-.007-.1.743.743,0,0,0-1.487,0,2.23,2.23,0,0,0,4.46,0,2.221,2.221,0,0,0-.57-1.487,2.23,2.23,0,1,0-3.849-1.918Z" transform="translate(-200.73 -172.217)" fill="#3655c6"/>
</svg>
