<svg id="discount" xmlns="http://www.w3.org/2000/svg" width="25" height="25" viewBox="0 0 25 25">
  <g id="Group_5782" data-name="Group 5782" transform="translate(0 0)">
    <g id="Group_5781" data-name="Group 5781">
      <path id="Path_7990" data-name="Path 7990" d="M34.154,12.822a.706.706,0,0,1,0-.648l.972-1.907a2.129,2.129,0,0,0-.976-2.882l-1.955-1a.735.735,0,0,1-.4-.524l-.382-2.091a2.252,2.252,0,0,0-2.555-1.781l-2.191.3a.784.784,0,0,1-.642-.2L24.438.615a2.33,2.33,0,0,0-3.158,0L19.69,2.091a.784.784,0,0,1-.642.2l-2.191-.3A2.252,2.252,0,0,0,14.3,3.775L13.92,5.866a.736.736,0,0,1-.4.524l-1.955,1a2.129,2.129,0,0,0-.976,2.882l.972,1.907a.706.706,0,0,1,0,.648l-.972,1.907a2.129,2.129,0,0,0,.976,2.882l1.955,1a.735.735,0,0,1,.4.524l.382,2.091a2.236,2.236,0,0,0,2.23,1.8A2.42,2.42,0,0,0,16.857,23l2.191-.3a.784.784,0,0,1,.642.2l1.59,1.476a2.331,2.331,0,0,0,3.158,0l1.59-1.476a.785.785,0,0,1,.642-.2l2.191.3a2.252,2.252,0,0,0,2.555-1.781L31.8,19.13a.736.736,0,0,1,.4-.524l1.955-1a2.129,2.129,0,0,0,.976-2.882Zm-.708,3.516-1.955,1a2.174,2.174,0,0,0-1.172,1.548l-.382,2.091a.762.762,0,0,1-.864.6l-2.191-.3a2.317,2.317,0,0,0-1.9.591l-1.59,1.476a.789.789,0,0,1-1.068,0l-1.59-1.476a2.305,2.305,0,0,0-1.574-.613,2.4,2.4,0,0,0-.323.022l-2.191.3a.762.762,0,0,1-.864-.6L15.4,18.881a2.173,2.173,0,0,0-1.172-1.548l-1.955-1a.72.72,0,0,1-.33-.975l.972-1.907a2.087,2.087,0,0,0,0-1.914l-.972-1.907a.72.72,0,0,1,.33-.975l1.955-1A2.174,2.174,0,0,0,15.4,6.115l.382-2.091a.762.762,0,0,1,.864-.6l2.191.3a2.317,2.317,0,0,0,1.9-.591l1.59-1.476a.789.789,0,0,1,1.068,0l1.59,1.476a2.317,2.317,0,0,0,1.9.591l2.191-.3a.762.762,0,0,1,.864.6l.382,2.091a2.174,2.174,0,0,0,1.172,1.548l1.955,1a.72.72,0,0,1,.33.975L32.8,11.541a2.087,2.087,0,0,0,0,1.914l.972,1.907A.72.72,0,0,1,33.445,16.338Z" transform="translate(-10.359 0.002)" fill="#3655c6"/>
    </g>
  </g>
  <g id="Group_5784" data-name="Group 5784" transform="translate(6.79 6.79)">
    <g id="Group_5783" data-name="Group 5783">
      <path id="Path_7991" data-name="Path 7991" d="M154.991,144.012a.751.751,0,0,0-1.063,0l-9.917,9.917a.751.751,0,1,0,1.063,1.063l9.917-9.917A.751.751,0,0,0,154.991,144.012Z" transform="translate(-143.791 -143.791)" fill="#3655c6"/>
    </g>
  </g>
  <g id="Group_5786" data-name="Group 5786" transform="translate(6.74 5.944)">
    <g id="Group_5785" data-name="Group 5785">
      <path id="Path_7992" data-name="Path 7992" d="M145.557,123.116a2.755,2.755,0,1,0,2.755,2.755A2.758,2.758,0,0,0,145.557,123.116Zm0,4.007a1.252,1.252,0,1,1,1.252-1.252A1.254,1.254,0,0,1,145.557,127.123Z" transform="translate(-142.802 -123.116)" fill="#3655c6"/>
    </g>
  </g>
  <g id="Group_5788" data-name="Group 5788" transform="translate(12.75 13.547)">
    <g id="Group_5787" data-name="Group 5787">
      <path id="Path_7993" data-name="Path 7993" d="M263.677,280.61a2.755,2.755,0,1,0,2.755,2.755A2.758,2.758,0,0,0,263.677,280.61Zm0,4.007a1.252,1.252,0,1,1,1.252-1.252A1.254,1.254,0,0,1,263.677,284.617Z" transform="translate(-260.922 -280.61)" fill="#3655c6"/>
    </g>
  </g>
</svg>
