<svg xmlns="http://www.w3.org/2000/svg" width="30" height="30.001" viewBox="0 0 30 30.001">
  <g id="clock_2_" data-name="clock (2)" transform="translate(-0.002)">
    <path id="Path_8031" data-name="Path 8031" d="M15,0A15,15,0,1,0,30,15,15.017,15.017,0,0,0,15,0Zm0,27.85A12.85,12.85,0,1,1,27.852,15,12.865,12.865,0,0,1,15,27.85Z" fill="#3655c6"/>
    <path id="Path_8032" data-name="Path 8032" d="M103.851,50.778H96.51V42.754a1.12,1.12,0,0,0-2.239,0V51.9a1.12,1.12,0,0,0,1.12,1.12h8.461a1.12,1.12,0,1,0,0-2.239Z" transform="translate(-81.047 -35.807)" fill="#3655c6"/>
  </g>
</svg>
