<svg id="mail" xmlns="http://www.w3.org/2000/svg" width="30" height="30" viewBox="0 0 30 30">
  <g id="Group_5842" data-name="Group 5842" transform="translate(0 0)">
    <g id="Group_5841" data-name="Group 5841">
      <path id="Path_8034" data-name="Path 8034" d="M29.228,12.106l-4.5-4.5V6.211A2.64,2.64,0,0,0,22.09,3.574h-1.4l-2.2-2.157a4.868,4.868,0,0,0-6.867,0l-2.2,2.157h-1.4A2.64,2.64,0,0,0,5.391,6.211V7.6L.78,12.1l-.008.007A2.619,2.619,0,0,0,0,13.971V27.364A2.641,2.641,0,0,0,2.637,30H27.363A2.641,2.641,0,0,0,30,27.364V13.971A2.619,2.619,0,0,0,29.228,12.106Zm-4.5-2.015,3.152,3.152-3.152,3.152ZM12.859,2.669l.006-.006a3.106,3.106,0,0,1,4.388,0l.006.006.923.9H11.936ZM7.148,6.211a.88.88,0,0,1,.879-.879H22.09a.88.88,0,0,1,.879.879V18.152L21.2,19.92l-3.035-3.049a4.394,4.394,0,0,0-6.213,0L8.9,19.908,7.148,18.187ZM5.391,10.055v6.4L2.127,13.24ZM1.758,27.005V15.344l5.891,5.8Zm1.249,1.237L13.194,18.114a2.637,2.637,0,0,1,3.727,0L27,28.242Zm25.236-1.248-5.8-5.829,2.028-2.028h0l3.773-3.773Z" transform="translate(0 0)" fill="#3655c6"/>
    </g>
  </g>
  <g id="Group_5844" data-name="Group 5844" transform="translate(8.32 8.265)">
    <g id="Group_5843" data-name="Group 5843">
      <path id="Path_8035" data-name="Path 8035" d="M156.105,151h-3.284a.821.821,0,0,0,0,1.642h3.284a.821.821,0,0,0,0-1.642Z" transform="translate(-152 -151)" fill="#3655c6"/>
    </g>
  </g>
  <g id="Group_5846" data-name="Group 5846" transform="translate(8.32 11.549)">
    <g id="Group_5845" data-name="Group 5845">
      <path id="Path_8036" data-name="Path 8036" d="M162.673,211h-9.852a.821.821,0,0,0,0,1.642h9.852a.821.821,0,0,0,0-1.642Z" transform="translate(-152 -211)" fill="#3655c6"/>
    </g>
  </g>
</svg>
