<svg id="calendar_2_" data-name="calendar (2)" xmlns="http://www.w3.org/2000/svg" width="30" height="30" viewBox="0 0 30 30">
  <g id="Group_5815" data-name="Group 5815" transform="translate(21.206 21.321)">
    <g id="Group_5814" data-name="Group 5814">
      <path id="Path_8024" data-name="Path 8024" d="M363.587,361a.862.862,0,0,0-.862.862v1.367l-1.472,1.472a.862.862,0,0,0,1.219,1.219L364.2,364.2a.862.862,0,0,0,.253-.61v-1.724A.862.862,0,0,0,363.587,361Z" transform="translate(-361.001 -361)" fill="#3655c6"/>
    </g>
  </g>
  <g id="Group_5817" data-name="Group 5817" transform="translate(17.708 10.648)">
    <g id="Group_5816" data-name="Group 5816">
      <path id="Path_8025" data-name="Path 8025" d="M305.311,181h-3.449a.862.862,0,0,0-.862.862v3.449a.862.862,0,0,0,.862.862h3.449a.862.862,0,0,0,.862-.862v-3.449A.862.862,0,0,0,305.311,181Zm-.862,3.449h-1.724v-1.724h1.724Z" transform="translate(-301 -181)" fill="#3655c6"/>
    </g>
  </g>
  <g id="Group_5819" data-name="Group 5819" transform="translate(10.648 17.708)">
    <g id="Group_5818" data-name="Group 5818">
      <path id="Path_8026" data-name="Path 8026" d="M185.311,301h-3.449a.862.862,0,0,0-.862.862v3.449a.862.862,0,0,0,.862.862h3.449a.862.862,0,0,0,.862-.862v-3.449A.862.862,0,0,0,185.311,301Zm-.862,3.449h-1.724v-1.724h1.724Z" transform="translate(-181 -301)" fill="#3655c6"/>
    </g>
  </g>
  <g id="Group_5821" data-name="Group 5821">
    <g id="Group_5820" data-name="Group 5820">
      <path id="Path_8027" data-name="Path 8027" d="M26.426,18.219V4.395a2.64,2.64,0,0,0-2.637-2.637h-1.03a2.636,2.636,0,0,0-4.971,0H8.7A2.641,2.641,0,0,0,6.211,0a2.71,2.71,0,0,0-1.88.758,2.641,2.641,0,0,0-.66,1H2.637A2.64,2.64,0,0,0,0,4.395V23.789a2.64,2.64,0,0,0,2.637,2.637H18.219A6.157,6.157,0,0,0,23.789,30,6.248,6.248,0,0,0,30,23.789,6.157,6.157,0,0,0,26.426,18.219ZM19.395,2.637a.879.879,0,1,1,1.758,0v.879H19.395Zm-14.121,0a.933.933,0,0,1,.938-.879.88.88,0,0,1,.879.879v.879H5.273ZM1.758,4.395a.88.88,0,0,1,.879-.879h.879v.879a.879.879,0,0,0,.879.879H7.969a.879.879,0,0,0,.879-.879V3.516h8.789v.879a.879.879,0,0,0,.879.879h3.516a.879.879,0,0,0,.879-.879V3.516h.879a.88.88,0,0,1,.879.879v2.7H1.758ZM17.7,24.668H2.637a.88.88,0,0,1-.879-.879V8.848h22.91V17.7a6.293,6.293,0,0,0-.879-.062,6.159,6.159,0,0,0-6.152,6.152A6.293,6.293,0,0,0,17.7,24.668Zm6.09,3.574a4.424,4.424,0,1,1,4.453-4.453A4.513,4.513,0,0,1,23.789,28.242Z" fill="#3655c6"/>
    </g>
  </g>
  <g id="Group_5823" data-name="Group 5823" transform="translate(3.449 10.648)">
    <g id="Group_5822" data-name="Group 5822">
      <path id="Path_8028" data-name="Path 8028" d="M64.368,181H60.862a.862.862,0,0,0-.862.862v3.449a.862.862,0,0,0,.862.862h3.506a.862.862,0,0,0,.862-.862v-3.449A.862.862,0,0,0,64.368,181Zm-.862,3.449H61.724v-1.724h1.782Z" transform="translate(-60 -181)" fill="#3655c6"/>
    </g>
  </g>
  <g id="Group_5825" data-name="Group 5825" transform="translate(3.449 17.708)">
    <g id="Group_5824" data-name="Group 5824">
      <path id="Path_8029" data-name="Path 8029" d="M64.368,301H60.862a.862.862,0,0,0-.862.862v3.449a.862.862,0,0,0,.862.862h3.506a.862.862,0,0,0,.862-.862v-3.449A.862.862,0,0,0,64.368,301Zm-.862,3.449H61.724v-1.724h1.782Z" transform="translate(-60 -301)" fill="#3655c6"/>
    </g>
  </g>
  <g id="Group_5827" data-name="Group 5827" transform="translate(10.648 10.648)">
    <g id="Group_5826" data-name="Group 5826">
      <path id="Path_8030" data-name="Path 8030" d="M185.311,181h-3.449a.862.862,0,0,0-.862.862v3.449a.862.862,0,0,0,.862.862h3.449a.862.862,0,0,0,.862-.862v-3.449A.862.862,0,0,0,185.311,181Zm-.862,3.449h-1.724v-1.724h1.724Z" transform="translate(-181 -181)" fill="#3655c6"/>
    </g>
  </g>
</svg>
