<svg xmlns="http://www.w3.org/2000/svg" width="30" height="30" viewBox="0 0 30 30">
  <g id="world-wide-web" transform="translate(0)">
    <g id="Group_5848" data-name="Group 5848" transform="translate(1.642 12.537)">
      <g id="Group_5847" data-name="Group 5847">
        <path id="Path_8037" data-name="Path 8037" d="M56.234,211.088a.922.922,0,0,0-1.195.353l-1.032,1.849-.993-1.839a.92.92,0,0,0-1.586,0l-.98,1.815-.98-1.815A.9.9,0,0,0,48.62,211l-.054,0a.872.872,0,0,0-.805.619.833.833,0,0,0-.463-.537.921.921,0,0,0-1.189.367l-.98,1.815-.98-1.815a.92.92,0,0,0-1.586,0l-.98,1.815-.98-1.815a.921.921,0,0,0-1.19-.367.833.833,0,0,0-.463.537.872.872,0,0,0-.805-.619l-.054,0a.9.9,0,0,0-.847.452l-.98,1.815-.98-1.815a.921.921,0,0,0-1.586,0L32.7,213.29l-1.032-1.849a.922.922,0,0,0-1.195-.353.793.793,0,0,0-.381,1.106l1.832,3.284a.92.92,0,0,0,1.581-.01l.98-1.815.98,1.815a.921.921,0,0,0,1.586,0l1.652-3.06a.807.807,0,0,0,.242-.391.786.786,0,0,0,.066.166l1.773,3.284a.921.921,0,0,0,1.586,0l.98-1.815.98,1.815a.921.921,0,0,0,1.586,0l1.773-3.284a.785.785,0,0,0,.066-.166.806.806,0,0,0,.242.391l1.652,3.06a.921.921,0,0,0,1.586,0l.98-1.815.98,1.815a.92.92,0,0,0,1.581.01l1.832-3.284A.793.793,0,0,0,56.234,211.088Z" transform="translate(-29.997 -210.996)" fill="#3655c6"/>
      </g>
    </g>
    <g id="Group_5850" data-name="Group 5850" transform="translate(0)">
      <g id="Group_5849" data-name="Group 5849" transform="translate(0)">
        <path id="Path_8038" data-name="Path 8038" d="M28.889,9.336a15,15,0,0,0-27.777,0A2.635,2.635,0,0,0,0,11.484v7.031a2.635,2.635,0,0,0,1.111,2.149,15,15,0,0,0,27.777,0A2.635,2.635,0,0,0,30,18.516V11.484A2.635,2.635,0,0,0,28.889,9.336Zm-2.167-.488H22.228a16.875,16.875,0,0,0-2.54-5.992q-.116-.161-.235-.313A13.4,13.4,0,0,1,26.721,8.848ZM15.879,1.905c2.4.807,3.909,4.448,4.54,6.943h-4.54Zm-1.758,0V8.848H9.581a14.728,14.728,0,0,1,2.156-4.963A5.258,5.258,0,0,1,14.121,1.905Zm-3.574.638q-.119.152-.235.313a16.874,16.874,0,0,0-2.54,5.992H3.279A13.4,13.4,0,0,1,10.547,2.543ZM3.279,21.152H7.772a16.535,16.535,0,0,0,2.775,6.3A13.4,13.4,0,0,1,3.279,21.152ZM14.121,28.1c-2.4-.807-3.909-4.448-4.54-6.943h4.54Zm1.758,0V21.141h4.54C19.787,23.639,18.279,27.289,15.879,28.1Zm3.574-.638a16.585,16.585,0,0,0,2.775-6.317h4.493A13.423,13.423,0,0,1,19.453,27.457Zm8.789-8.942a.88.88,0,0,1-.879.879H2.637a.88.88,0,0,1-.879-.879V11.484a.88.88,0,0,1,.879-.879H27.363a.88.88,0,0,1,.879.879Z" transform="translate(0)" fill="#3655c6"/>
      </g>
    </g>
  </g>
</svg>
