<svg xmlns="http://www.w3.org/2000/svg" width="30" height="34" viewBox="0 0 30 34">
  <g id="location" transform="translate(-31)">
    <g id="Group_5811" data-name="Group 5811" transform="translate(31)">
      <g id="Group_5810" data-name="Group 5810" transform="translate(0)">
        <path id="Path_8022" data-name="Path 8022" d="M51.7,22.464c3.632-5.677,3.176-4.969,3.28-5.117A10.846,10.846,0,0,0,57,11.023a11,11,0,1,0-22,0,10.9,10.9,0,0,0,2.079,6.4L40.3,22.464c-3.445.527-9.3,2.1-9.3,5.559,0,1.261.827,3.059,4.764,4.46A31.677,31.677,0,0,0,46,34c7.2,0,15-2.024,15-5.977C61,24.563,55.15,22.993,51.7,22.464ZM38.75,16.332q-.016-.026-.034-.05A8.914,8.914,0,0,1,37,11.023a9,9,0,1,1,18,0,8.87,8.87,0,0,1-1.643,5.158c-.1.127.406-.651-7.357,11.483ZM46,32.008c-7.866,0-13-2.3-13-3.984,0-1.13,2.638-2.988,8.483-3.712l3.673,5.742a1,1,0,0,0,1.687,0l3.673-5.742C56.362,25.035,59,26.893,59,28.023,59,29.69,53.912,32.008,46,32.008Z" transform="translate(-31)" fill="#3655c6"/>
      </g>
    </g>
    <g id="Group_5813" data-name="Group 5813" transform="translate(41 6.033)">
      <g id="Group_5812" data-name="Group 5812" transform="translate(0)">
        <path id="Path_8023" data-name="Path 8023" d="M186,91a5,5,0,1,0,5,5A5.006,5.006,0,0,0,186,91Zm0,8a3,3,0,1,1,3-3A3,3,0,0,1,186,99Z" transform="translate(-181 -91)" fill="#3655c6"/>
      </g>
    </g>
  </g>
</svg>
