<svg xmlns="http://www.w3.org/2000/svg" width="30" height="30.001" viewBox="0 0 30 30.001">
  <g id="telephone" transform="translate(-0.011)">
    <g id="Group_5840" data-name="Group 5840" transform="translate(0.011 0)">
      <path id="Path_8033" data-name="Path 8033" d="M29.239,22.128,25.51,18.4a2.64,2.64,0,0,0-3.73,0l-1.7,1.7a2,2,0,0,1-2.825,0L9.912,12.74a2,2,0,0,1,0-2.825l1.7-1.7a2.636,2.636,0,0,0,0-3.731L7.877.771a2.639,2.639,0,0,0-3.727,0L2.792,2.116a9.521,9.521,0,0,0,0,13.449L14.434,27.214a9.5,9.5,0,0,0,13.449,0l1.356-1.356A2.64,2.64,0,0,0,29.239,22.128ZM5.391,2.015a.88.88,0,0,1,1.244,0l3.729,3.717a.879.879,0,0,1,0,1.243L9.742,7.6l-4.97-4.97ZM15.677,25.971,4.035,14.322A7.729,7.729,0,0,1,3.55,3.891L8.505,8.846a3.752,3.752,0,0,0,.163,5.136l7.348,7.354h0a3.752,3.752,0,0,0,5.136.164l4.955,4.955A7.714,7.714,0,0,1,15.677,25.971ZM28,24.614l-.622.622L22.4,20.263l.622-.622a.88.88,0,0,1,1.243,0L28,23.371A.88.88,0,0,1,28,24.614Z" transform="translate(-0.011 0)" fill="#3655c6"/>
    </g>
  </g>
</svg>
