<svg xmlns="http://www.w3.org/2000/svg" width="12" height="15" viewBox="0 0 12 15">
  <g id="bx-map" transform="translate(-4 -2)">
    <path id="Path_6595" data-name="Path 6595" d="M11.137,12.275A3.137,3.137,0,1,0,8,9.137,3.14,3.14,0,0,0,11.137,12.275Zm0-4.706A1.569,1.569,0,1,1,9.569,9.137,1.57,1.57,0,0,1,11.137,7.569Z" transform="translate(-1.137 -0.804)" fill="#3655c6"/>
    <path id="Path_6596" data-name="Path 6596" d="M9.565,16.861a.748.748,0,0,0,.87,0C10.663,16.7,16.022,12.83,16,8A6,6,0,0,0,4,8C3.978,12.83,9.337,16.7,9.565,16.861ZM10,3.5A4.505,4.505,0,0,1,14.5,8c.016,3.329-3.291,6.317-4.5,7.3C8.792,14.32,5.484,11.331,5.5,8A4.5,4.5,0,0,1,10,3.5Z" fill="#3655c6"/>
  </g>
</svg>
