<svg xmlns="http://www.w3.org/2000/svg" width="25" height="25" viewBox="0 0 25 25">
  <g id="price-tag_1_" data-name="price-tag (1)" transform="translate(0 0)">
    <path id="Path_8015" data-name="Path 8015" d="M175.749,124.454,179.2,114.1a.732.732,0,0,0-1.39-.463l-3.453,10.358a.732.732,0,1,0,1.39.463Z" transform="translate(-165.81 -107.607)" fill="#3655c6"/>
    <path id="Path_8016" data-name="Path 8016" d="M266.73,193.6a2.2,2.2,0,1,0-2.2-2.2A2.2,2.2,0,0,0,266.73,193.6Zm0-2.93a.732.732,0,1,1-.732.732A.733.733,0,0,1,266.73,190.668Z" transform="translate(-251.616 -179.964)" fill="#3655c6"/>
    <path id="Path_8017" data-name="Path 8017" d="M97.024,189.2a2.2,2.2,0,1,0,2.2,2.2A2.2,2.2,0,0,0,97.024,189.2Zm0,2.93a.732.732,0,1,1,.732-.732A.733.733,0,0,1,97.024,192.133Z" transform="translate(-90.197 -179.964)" fill="#3655c6"/>
    <path id="Path_8018" data-name="Path 8018" d="M24.854,9.082,22.3,5.677l.1-.7a.732.732,0,0,0-.207-.621L20.638,2.8l1.554-1.554A.732.732,0,0,0,21.156.215L19.6,1.768,18.049.215a.733.733,0,0,0-.621-.207L10.177,1.043a.732.732,0,0,0-.414.207L.786,10.227a2.689,2.689,0,0,0,0,3.8l7.6,7.6a2.679,2.679,0,0,0,.506.4v.3A2.689,2.689,0,0,0,11.572,25H22.314A2.689,2.689,0,0,0,25,22.315V9.522a.733.733,0,0,0-.146-.439ZM1.821,12.99a1.222,1.222,0,0,1,0-1.726l8.8-8.8,6.646-.949L18.567,2.8,17.531,3.84l-.518-.518a.732.732,0,1,0-1.036,1.036L18.049,6.43a.732.732,0,0,0,1.036-1.036l-.518-.518L19.6,3.84,20.9,5.135l-.95,6.646-8.8,8.8a1.221,1.221,0,0,1-1.726,0Zm21.714,9.325a1.222,1.222,0,0,1-1.221,1.221H11.572A1.222,1.222,0,0,1,10.355,22.4a2.675,2.675,0,0,0,1.824-.783l8.977-8.977a.732.732,0,0,0,.207-.414l.643-4.5,1.529,2.038Z" transform="translate(0 0)" fill="#3655c6"/>
  </g>
</svg>
