<svg id="quiz" xmlns="http://www.w3.org/2000/svg" width="25" height="25" viewBox="0 0 25 25">
  <path id="Path_8004" data-name="Path 8004" d="M24.268,5.859H19.051a6.592,6.592,0,0,0-13.1,0H.732A.732.732,0,0,0,0,6.592V21.338a.732.732,0,0,0,.732.732h5.05a2.2,2.2,0,0,1-2.071,1.465H2.979a.732.732,0,0,0,0,1.465h.732A3.668,3.668,0,0,0,7.3,22.07H17.7A3.668,3.668,0,0,0,21.289,25h.732a.732.732,0,1,0,0-1.465h-.732a2.2,2.2,0,0,1-2.071-1.465h5.05A.732.732,0,0,0,25,21.338V6.592a.732.732,0,0,0-.732-.732ZM12.5,1.465a5.133,5.133,0,0,1,5.127,5.127,5.072,5.072,0,0,1-2.483,4.379A7.694,7.694,0,0,0,12.5,13.629a7.75,7.75,0,0,0-2.649-2.662A5.073,5.073,0,0,1,7.373,6.592,5.133,5.133,0,0,1,12.5,1.465ZM23.535,20.605H1.465V7.324H5.95a6.562,6.562,0,0,0,3.142,4.9,6.282,6.282,0,0,1,2.713,3.39.732.732,0,0,0,.695.5h0a.732.732,0,0,0,.695-.5l.007-.022a6.225,6.225,0,0,1,2.7-3.363,6.561,6.561,0,0,0,3.151-4.9h4.485Z" transform="translate(0 0)" fill="#3655c6"/>
  <path id="Path_8005" data-name="Path 8005" d="M106.74,361a.722.722,0,1,0,0,1.443h13.323a.722.722,0,1,0,0-1.443Z" transform="translate(-100.902 -343.357)" fill="#3655c6"/>
  <path id="Path_8006" data-name="Path 8006" d="M211.721,62.886a.721.721,0,0,0,.721-.721.721.721,0,1,1,.965.68,1.459,1.459,0,0,0-.965,1.37v.115a.721.721,0,0,0,1.443,0v-.115a.013.013,0,0,1,.009-.012A2.164,2.164,0,1,0,211,62.164.721.721,0,0,0,211.721,62.886Z" transform="translate(-200.664 -57.114)" fill="#3655c6"/>
  <circle id="Ellipse_3383" data-name="Ellipse 3383" cx="0.5" cy="0.5" r="0.5" transform="translate(11.809 9.143)" fill="#3655c6"/>
</svg>
