<svg xmlns="http://www.w3.org/2000/svg" width="73.016" height="64.383" viewBox="0 0 73.016 64.383">
  <g id="quote" transform="translate(0 -7.328)" opacity="0.05">
    <path id="Path_7824" data-name="Path 7824" d="M29.333,20.112A3.511,3.511,0,0,0,31.1,15.4L28.214,9.333A3.521,3.521,0,0,0,23.62,7.626,40.58,40.58,0,0,0,10.9,15.872,30.776,30.776,0,0,0,2.356,29.36C.825,34.426,0,41.317,0,50.094V68.177a3.545,3.545,0,0,0,3.534,3.534H26.683a3.545,3.545,0,0,0,3.534-3.534V45.028a3.544,3.544,0,0,0-3.534-3.534H15.609c.118-5.95,1.531-10.72,4.123-14.314A22.388,22.388,0,0,1,29.333,20.112Z" fill="#3655c6"/>
    <path id="Path_7825" data-name="Path 7825" d="M99.975,20.154a3.511,3.511,0,0,0,1.767-4.712L98.855,9.434a3.522,3.522,0,0,0-4.594-1.708A42.668,42.668,0,0,0,81.6,15.913,31.436,31.436,0,0,0,73,29.461q-2.3,7.421-2.3,20.675V68.219a3.545,3.545,0,0,0,3.534,3.534H97.383a3.545,3.545,0,0,0,3.534-3.534V45.07a3.544,3.544,0,0,0-3.534-3.534H86.25c.118-5.95,1.532-10.72,4.123-14.314A22.385,22.385,0,0,1,99.975,20.154Z" transform="translate(-29.056 -0.041)" fill="#3655c6"/>
  </g>
</svg>
