<svg xmlns="http://www.w3.org/2000/svg" width="25" height="25" viewBox="0 0 25 25">
  <g id="translator" transform="translate(-1)">
    <path id="Path_8012" data-name="Path 8012" d="M25.265,0H13.5a.734.734,0,0,0-.735.732V7.91H1.735A.734.734,0,0,0,1,8.643V24.268a.736.736,0,0,0,1.255.518L4.981,22.07H13.5a.734.734,0,0,0,.735-.732V14.16h7.784l2.726,2.715A.736.736,0,0,0,26,16.357V.732A.734.734,0,0,0,25.265,0Zm-12.5,20.605H4.676a.737.737,0,0,0-.52.215L2.471,22.5V9.375H12.765Zm11.765-6.016L22.843,12.91a.737.737,0,0,0-.52-.215H14.235V1.465H24.529Z" transform="translate(0)" fill="#3655c6"/>
    <path id="Path_8013" data-name="Path 8013" d="M296.735,63.431h.538a5.62,5.62,0,0,0,1.424,3.06,4.141,4.141,0,0,1-1.717.372.735.735,0,0,0,0,1.471,5.6,5.6,0,0,0,2.941-.83,5.6,5.6,0,0,0,2.941.83.735.735,0,1,0,0-1.471,4.141,4.141,0,0,1-1.717-.372,5.62,5.62,0,0,0,1.424-3.06h.538a.735.735,0,0,0,0-1.471h-2.451V60.735a.735.735,0,1,0-1.471,0v1.225h-2.451a.735.735,0,0,0,0,1.471Zm3.186,2.213a4.161,4.161,0,0,1-1.159-2.213h2.318A4.16,4.16,0,0,1,299.922,65.645Z" transform="translate(-280.539 -57.059)" fill="#3655c6"/>
    <path id="Path_8014" data-name="Path 8014" d="M70.018,222.572l-.008-.02a.888.888,0,0,0-.824-.552h0a.888.888,0,0,0-.824.554l-.007.017-2.577,6.766a.735.735,0,0,0,1.374.523l.461-1.212h3.125l.456,1.209a.735.735,0,0,0,1.376-.519Zm-1.844,4.606,1.01-2.651,1,2.651Z" transform="translate(-61.557 -211.181)" fill="#3655c6"/>
  </g>
</svg>
