<svg id="video-lesson" xmlns="http://www.w3.org/2000/svg" width="25" height="25" viewBox="0 0 25 25">
  <path id="Path_8008" data-name="Path 8008" d="M92.45,272.725a.725.725,0,1,1-.725-.725A.725.725,0,0,1,92.45,272.725Zm0,0" transform="translate(-86.554 -258.71)" fill="#3655c6"/>
  <path id="Path_8009" data-name="Path 8009" d="M211.385,90.083a.725.725,0,0,0-.385.641v5.9a.725.725,0,0,0,1.131.6l4.349-2.948a.725.725,0,0,0,0-1.2l-4.349-2.948A.725.725,0,0,0,211.385,90.083Zm1.064,2.008,2.332,1.581-2.332,1.581Zm0,0" transform="translate(-200.665 -85.585)" fill="#3655c6"/>
  <path id="Path_8010" data-name="Path 8010" d="M24.268,2.93a.732.732,0,0,0,0-1.465H13.232V.732a.732.732,0,0,0-1.465,0v.732H.732a.732.732,0,1,0,0,1.465h.732V16.211H.732a.732.732,0,1,0,0,1.465H10.976L6.289,23.535H5.176a.732.732,0,1,0,0,1.465H6.641a.732.732,0,0,0,.572-.275l4.555-5.694v5.236a.732.732,0,0,0,1.465,0V19.031l4.555,5.694a.732.732,0,0,0,.572.275h1.465a.732.732,0,0,0,0-1.465H18.711l-4.688-5.859H24.268a.732.732,0,0,0,0-1.465h-.732V2.93Zm-2.2,13.281H2.93V2.93H22.07Zm0,0" transform="translate(0 0)" fill="#3655c6"/>
  <path id="Path_8011" data-name="Path 8011" d="M151,272.725a.725.725,0,0,0,.725.725h11.646a.725.725,0,1,0,0-1.45H151.725A.725.725,0,0,0,151,272.725Zm0,0" transform="translate(-143.541 -258.71)" fill="#3655c6"/>
</svg>
